<svg xmlns="http://www.w3.org/2000/svg" viewBox="0 0 1024 1024">
  <defs>
    <linearGradient id="surface" x1="0" y1="0" x2="1" y2="1">
      <stop offset="0" stop-color="#252525"/>
      <stop offset="1" stop-color="#101010"/>
    </linearGradient>
    <linearGradient id="signal" x1="0.18" y1="0.08" x2="0.82" y2="0.92">
      <stop offset="0" stop-color="#7cddff"/>
      <stop offset="0.52" stop-color="#05bdf5"/>
      <stop offset="1" stop-color="#008ac2"/>
    </linearGradient>
    <filter id="shadow" x="-30%" y="-30%" width="160%" height="160%">
      <feGaussianBlur in="SourceAlpha" stdDeviation="18"/>
      <feOffset dy="16"/>
      <feColorMatrix values="0 0 0 0 0 0 0 0 0 0.55 0 0 0 0 0.8 0 0 0 .28 0"/>
      <feMerge><feMergeNode/><feMergeNode in="SourceGraphic"/></feMerge>
    </filter>
  </defs>
  <rect x="52" y="52" width="920" height="920" rx="216" fill="url(#surface)"/>
  <rect x="66" y="66" width="892" height="892" rx="202" fill="none" stroke="#ffffff" stroke-opacity=".09" stroke-width="4"/>
  <g opacity=".12" stroke="#9b9b9b" stroke-width="3">
    <path d="M256 208v608M384 208v608M512 208v608M640 208v608M768 208v608"/>
    <path d="M208 256h608M208 384h608M208 512h608M208 640h608M208 768h608"/>
  </g>
  <path d="M226 294h142l144 354 144-354h142L578 790H446L226 294Z" fill="#000" opacity=".45" transform="translate(0 18)"/>
  <path d="M226 294h142l144 354 144-354h142L578 790H446L226 294Z" fill="url(#signal)" filter="url(#shadow)"/>
  <path d="M307 320h43l162 398 162-398h43" fill="none" stroke="#c9f3ff" stroke-opacity=".48" stroke-width="12" stroke-linecap="round"/>
</svg>
